<svg width="27" height="24" viewBox="0 0 27 24" fill="none" xmlns="http://www.w3.org/2000/svg">
<g filter="url(#filter0_d_1_1237)">
<path d="M22.2668 1.02354C25.0951 2.5837 27.085 5.75131 26.9972 9.44664C26.8109 17.25 15.525 23 13.5 23C11.475 23 0.18774 17.25 0.00279137 9.44664C-0.084958 5.75131 1.90493 2.58498 4.73316 1.02354C7.37914 -0.4344 10.7028 -0.443345 13.5 1.70971C16.2972 -0.443345 19.6209 -0.435678 22.2668 1.02354Z" fill="#E48CF7"/>
</g>
<g filter="url(#filter1_d_1_1237)">
<path fill-rule="evenodd" clip-rule="evenodd" d="M19.7363 6.27726C19.9052 6.45463 20 6.69518 20 6.94599C20 7.19681 19.9052 7.43735 19.7363 7.61473L12.9869 14.7044C12.8977 14.7981 12.7918 14.8725 12.6752 14.9232C12.5587 14.9739 12.4338 15 12.3076 15C12.1814 15 12.0565 14.9739 11.94 14.9232C11.8234 14.8725 11.7175 14.7981 11.6283 14.7044L8.27491 11.1826C8.1889 11.0953 8.1203 10.991 8.07311 10.8756C8.02591 10.7602 8.00107 10.636 8.00003 10.5104C7.99899 10.3849 8.02178 10.2603 8.06706 10.1441C8.11233 10.0278 8.1792 9.9222 8.26375 9.83339C8.3483 9.74458 8.44884 9.67434 8.55951 9.62678C8.67017 9.57922 8.78875 9.55529 8.90831 9.55638C9.02788 9.55747 9.14604 9.58357 9.25591 9.63314C9.36577 9.68271 9.46513 9.75477 9.5482 9.84511L12.3073 12.7433L18.4625 6.27726C18.5461 6.18936 18.6454 6.11963 18.7547 6.07206C18.864 6.02449 18.9811 6 19.0994 6C19.2177 6 19.3348 6.02449 19.4441 6.07206C19.5534 6.11963 19.6527 6.18936 19.7363 6.27726Z" fill="white"/>
<path d="M19.0996 5.65039C19.2663 5.65042 19.431 5.6844 19.584 5.75098C19.7369 5.81756 19.875 5.91497 19.9902 6.03613C20.2225 6.28029 20.3496 6.60819 20.3496 6.94629C20.3495 7.28441 20.2226 7.61233 19.9902 7.85645L13.2402 14.9453C13.1194 15.0723 12.9747 15.1744 12.8145 15.2441C12.6543 15.3138 12.4821 15.3496 12.3076 15.3496C12.1332 15.3496 11.9609 15.3138 11.8008 15.2441C11.6406 15.1744 11.4959 15.0723 11.375 14.9453L8.02539 11.4277C7.90696 11.3075 7.81311 11.1645 7.74902 11.0078C7.68498 10.8511 7.65184 10.6832 7.65039 10.5137C7.64899 10.344 7.6797 10.1745 7.74121 10.0166C7.80271 9.85887 7.8934 9.71406 8.00977 9.5918C8.1262 9.46949 8.26618 9.37224 8.4209 9.30566C8.57575 9.23911 8.74273 9.20457 8.91113 9.20605C9.07957 9.20759 9.24572 9.24514 9.39941 9.31445C9.55104 9.38287 9.68727 9.4814 9.80078 9.60352L12.3066 12.2354L18.209 6.03613C18.3243 5.91496 18.4623 5.81756 18.6152 5.75098C18.7682 5.68445 18.933 5.65039 19.0996 5.65039Z" stroke="white" stroke-width="0.7"/>
</g>
<defs>
<filter id="filter0_d_1_1237" x="0" y="0" width="27" height="24" filterUnits="userSpaceOnUse" color-interpolation-filters="sRGB">
<feFlood flood-opacity="0" result="BackgroundImageFix"/>
<feColorMatrix in="SourceAlpha" type="matrix" values="0 0 0 0 0 0 0 0 0 0 0 0 0 0 0 0 0 0 127 0" result="hardAlpha"/>
<feOffset dy="1"/>
<feComposite in2="hardAlpha" operator="out"/>
<feColorMatrix type="matrix" values="0 0 0 0 0.560784 0 0 0 0 0.494118 0 0 0 0 0.905882 0 0 0 1 0"/>
<feBlend mode="normal" in2="BackgroundImageFix" result="effect1_dropShadow_1_1237"/>
<feBlend mode="normal" in="SourceGraphic" in2="effect1_dropShadow_1_1237" result="shape"/>
</filter>
<filter id="filter1_d_1_1237" x="7.30005" y="5.29999" width="13.3999" height="11.4" filterUnits="userSpaceOnUse" color-interpolation-filters="sRGB">
<feFlood flood-opacity="0" result="BackgroundImageFix"/>
<feColorMatrix in="SourceAlpha" type="matrix" values="0 0 0 0 0 0 0 0 0 0 0 0 0 0 0 0 0 0 127 0" result="hardAlpha"/>
<feOffset dy="1"/>
<feComposite in2="hardAlpha" operator="out"/>
<feColorMatrix type="matrix" values="0 0 0 0 0 0 0 0 0 0 0 0 0 0 0 0 0 0 0.25 0"/>
<feBlend mode="normal" in2="BackgroundImageFix" result="effect1_dropShadow_1_1237"/>
<feBlend mode="normal" in="SourceGraphic" in2="effect1_dropShadow_1_1237" result="shape"/>
</filter>
</defs>
</svg>
