<svg width="199" height="58" viewBox="0 0 199 58" fill="none" xmlns="http://www.w3.org/2000/svg">
<path d="M8.48461 31.863C6.78192 32.6134 4.70405 32.9885 2.25102 32.9885C1.4141 32.9885 0.663762 32.9164 0 32.7721C0 30.8674 0.808058 26.5818 2.42418 19.9153C4.06915 13.22 4.89164 9.00651 4.89164 7.27496C4.89164 6.58234 4.37217 5.65884 3.33324 4.50447L2.85706 3.94172L2.98693 2.98936C6.91179 2.29674 11.2695 1.95043 16.0602 1.95043C18.9461 1.95043 21.226 2.51319 22.8998 3.6387C24.5736 4.73535 25.4106 6.35146 25.4106 8.48705C25.4106 10.5938 24.8334 12.5273 23.679 14.2878C22.5246 16.0193 20.8797 17.3757 18.7441 18.3569C19.6964 21.5891 20.6055 24.1143 21.4713 25.9325C22.337 27.7506 23.0441 28.6597 23.5924 28.6597C24.0542 28.6597 24.7757 28.4865 25.7569 28.1402L26.2763 27.967L27.3153 30.3046C24.7757 32.2382 22.0917 33.205 19.2635 33.205C16.4642 33.205 14.6316 31.7909 13.7659 28.9627C13.0155 26.4808 12.4095 23.4073 11.9477 19.7421H10.4326C9.13395 25.8026 8.48461 29.8429 8.48461 31.863ZM12.2075 15.976C13.131 15.976 13.9246 15.6874 14.5883 15.1102C15.281 14.5331 15.8004 13.7827 16.1467 12.8592C16.7816 11.0411 17.0991 9.28068 17.0991 7.57798C17.0991 5.87529 16.3343 5.02394 14.8048 5.02394C14.343 5.02394 13.8813 5.06723 13.4195 5.15381C13.3907 6.04844 12.6836 9.62699 11.2984 15.8894C11.5004 15.9472 11.8034 15.976 12.2075 15.976Z" fill="#3822AB"/>
<path d="M48.8457 15.1535C48.2397 17.0294 47.7202 19.266 47.2873 21.8633C46.8544 24.4318 46.638 26.2355 46.638 27.2744C46.638 28.2845 46.7967 28.7895 47.1142 28.7895L49.2786 28.1835L50.0578 30.3479C49.1343 31.0694 47.9511 31.7332 46.5081 32.3392C45.094 32.9164 43.8386 33.205 42.742 33.205C40.8661 33.205 39.6829 32.3969 39.1923 30.7808C36.9124 32.3969 34.8923 33.205 33.1319 33.205C31.4003 33.205 30.0584 32.5701 29.106 31.3003C28.1536 30.0305 27.6775 28.2123 27.6775 25.8459C27.6775 22.5848 28.5144 19.7133 30.1882 17.2314C31.8621 14.7495 34.0698 13.5086 36.8114 13.5086C38.3121 13.5086 39.8416 13.927 41.4 14.7639C41.6309 14.2445 41.8185 13.8693 41.9628 13.6384C44.0407 13.6384 46.335 14.1435 48.8457 15.1535ZM35.8158 25.3264C35.8158 26.7694 35.9168 27.6784 36.1188 28.0536C36.3208 28.4288 36.696 28.6164 37.2443 28.6164C37.7926 28.6164 38.3265 28.3999 38.846 27.967C38.9614 24.6194 39.5098 21.113 40.491 17.4478C40.0581 17.1881 39.553 17.0582 38.9759 17.0582C38.4275 17.0582 37.9225 17.3757 37.4607 18.0106C37.0279 18.6455 36.696 19.4391 36.4651 20.3915C36.0322 22.2096 35.8158 23.8546 35.8158 25.3264Z" fill="#3822AB"/>
<path d="M51.6703 32.9452H50.9344C50.9344 31.156 51.3384 28.4432 52.1465 24.8069C52.9834 21.1707 53.4019 19.0784 53.4019 18.5301C53.4019 17.9817 53.272 17.4478 53.0123 16.9284C52.7525 16.4089 52.4928 16.0193 52.2331 15.7596L51.8435 15.37L51.93 14.7206C53.6327 14.1723 56.6052 13.8982 60.8475 13.8982C61.1361 14.5619 61.3382 15.2545 61.4536 15.976C64.0798 14.3599 66.2875 13.5518 68.0768 13.5518C69.2889 13.5518 70.2412 13.9559 70.9338 14.7639C71.6265 15.5431 71.9728 16.4955 71.9728 17.621C71.9728 18.7176 71.6553 20.4925 71.0204 22.9455C70.3855 25.3986 70.0681 27.0002 70.0681 27.7506C70.0681 28.4721 70.1691 28.8328 70.3711 28.8328L72.6654 28.2268L73.4446 30.3912C72.5211 31.0838 71.309 31.7332 69.8083 32.3392C68.3365 32.9164 66.9801 33.205 65.7392 33.205C63.2862 33.205 62.0596 31.9352 62.0596 29.3956C62.0596 28.2989 62.3627 26.5096 62.9687 24.0277C63.5747 21.5458 63.8778 20.0019 63.8778 19.3958C63.8778 18.7609 63.6758 18.4435 63.2717 18.4435C62.7523 18.4435 62.0596 18.7321 61.1939 19.3093C61.0784 19.8287 60.7898 21.0841 60.3281 23.0754C59.4046 27.26 58.9428 30.2758 58.9428 32.1228C57.5287 32.6711 55.1046 32.9452 51.6703 32.9452Z" fill="#3822AB"/>
<path d="M89.7087 33.205C87.9194 33.205 86.7651 32.5124 86.2456 31.1271C84.0523 32.5124 82.0899 33.205 80.3583 33.205C78.6556 33.205 77.2704 32.6278 76.2026 31.4734C75.1636 30.2902 74.6442 28.3855 74.6442 25.7593C74.6442 22.325 75.5099 19.4247 77.2415 17.0582C79.0019 14.6918 81.2674 13.5086 84.0378 13.5086C85.3942 13.5086 86.7506 13.826 88.107 14.4609C89.1748 9.5837 89.7087 6.0773 89.7087 3.94172C89.7087 3.30681 89.6654 2.67191 89.5788 2.03701C92.2627 1.28667 94.8456 0.911499 97.3275 0.911499C97.5584 1.28667 97.6738 2.18131 97.6738 3.59541C97.6738 4.98065 97.0101 8.73235 95.6826 14.8505C94.3839 20.9687 93.7346 25.0667 93.7346 27.1445C93.7346 28.2412 93.9221 28.7895 94.2973 28.7895L96.1587 28.1835L96.9379 30.3912C94.3983 32.2671 91.9886 33.205 89.7087 33.205ZM84.0378 28.8328C84.5573 28.8328 85.1345 28.6597 85.7694 28.3133V28.2701C85.8848 25.9325 86.4476 22.2529 87.4577 17.2314C86.8805 17.0582 86.462 16.9717 86.2023 16.9717C85.5963 16.9717 85.0624 17.2747 84.6006 17.8807C84.1389 18.4868 83.7781 19.266 83.5184 20.2183C83.0278 22.1808 82.7825 24.1143 82.7825 26.019C82.7825 27.8949 83.2009 28.8328 84.0378 28.8328Z" fill="#3822AB"/>
<path d="M134.113 32.9452H133.031C133.031 30.8962 133.421 28.0392 134.2 24.3741C135.008 20.6801 135.412 18.6311 135.412 18.227C135.412 17.823 135.282 17.3757 135.022 16.8851C134.763 16.3945 134.503 16.0193 134.243 15.7596L133.854 15.37L133.94 14.7206C135.614 14.1723 138.572 13.8982 142.814 13.8982C143.132 14.5619 143.348 15.269 143.464 16.0193C145.974 14.3743 148.096 13.5518 149.827 13.5518C150.751 13.5518 151.53 13.7971 152.165 14.2878C152.828 14.7784 153.29 15.4277 153.55 16.2358C155.945 14.4465 158.139 13.5518 160.13 13.5518C161.429 13.5518 162.439 13.9559 163.16 14.7639C163.91 15.5431 164.286 16.4955 164.286 17.621C164.286 18.7176 163.968 20.5069 163.333 22.9888C162.698 25.4707 162.381 27.0724 162.381 27.7939C162.381 28.4865 162.496 28.8328 162.727 28.8328L164.978 28.2701L165.757 30.4345C164.892 31.1271 163.694 31.762 162.164 32.3392C160.664 32.9164 159.307 33.205 158.095 33.205C155.613 33.205 154.372 31.9496 154.372 29.4388C154.372 28.3711 154.675 26.5529 155.281 23.9845C155.888 21.416 156.191 19.8576 156.191 19.3093C156.191 18.7321 155.974 18.4435 155.541 18.4435C154.935 18.4435 154.286 18.6888 153.593 19.1794C153.507 19.6123 153.276 20.6512 152.901 22.2962C152.093 25.9902 151.689 29.2657 151.689 32.1228C150.361 32.6134 147.778 32.8587 143.94 32.8587C143.853 32.5412 143.81 31.7909 143.81 30.6076C143.81 29.4244 144.127 27.3321 144.762 24.3308C145.397 21.3294 145.715 19.5979 145.715 19.1361C145.715 18.6744 145.513 18.4435 145.109 18.4435C144.618 18.4435 143.983 18.6744 143.204 19.1361C143.117 19.6267 142.843 20.8821 142.381 22.9022C141.4 27.1445 140.91 30.2325 140.91 32.166C139.553 32.6855 137.288 32.9452 134.113 32.9452Z" fill="#3822AB"/>
<path d="M114.79 18.2002L125.273 4.21162C123.568 2.93288 121.599 1.9464 119.419 1.34897C119.161 1.27842 118.904 1.21503 118.646 1.15667C116.51 0.673251 114.37 0.606854 112.312 0.904992L114.79 18.2002Z" fill="#FFABE1"/>
<path d="M114.79 18.2002L132.084 15.7229C131.742 13.3207 130.902 11.0313 129.644 8.99649C128.508 7.15933 127.031 5.53011 125.273 4.21179L114.79 18.2002Z" fill="#C689C6"/>
<path d="M128.756 28.6664C130.043 26.9563 131.035 24.9794 131.636 22.7896C131.656 22.7139 131.675 22.638 131.695 22.5621C132.293 20.2599 132.401 17.9431 132.084 15.7226L114.79 18.1999L128.756 28.6664Z" fill="#937DC2"/>
<path d="M97.5345 20.6719C97.842 22.794 98.5374 24.8274 99.567 26.6742C100.748 28.7919 102.368 30.6632 104.341 32.1429L114.79 18.2003L97.5345 20.6719Z" fill="#C689C6"/>
<path d="M123.303 33.4173C125.413 32.2409 127.279 30.6296 128.756 28.6667L114.79 18.2002L117.262 35.456C119.398 35.151 121.445 34.4532 123.303 33.4173Z" fill="#FFE6F7"/>
<path d="M112.312 0.904846C109.924 1.25103 107.649 2.08865 105.625 3.34029C103.78 4.48136 102.145 5.96631 100.824 7.73392L114.79 18.2L112.312 0.904846Z" fill="#FFE6F7"/>
<path d="M104.341 32.1428C105.964 33.3596 107.825 34.3118 109.881 34.916C109.985 34.9467 110.089 34.9775 110.195 35.0063C112.571 35.6578 114.968 35.7834 117.262 35.4561L114.79 18.2002L104.341 32.1428Z" fill="#FFABE1"/>
<path d="M114.79 18.2002L100.824 7.73392C99.5533 9.43369 98.5728 11.3946 97.9778 13.5653C97.957 13.6412 97.9382 13.717 97.9186 13.7928C97.3167 16.1086 97.211 18.4394 97.5346 20.6717L114.79 18.2002Z" fill="#937DC2"/>
<path d="M117.201 20.5728C118.524 19.2502 118.524 17.1058 117.201 15.7832C115.878 14.4606 113.734 14.4606 112.411 15.7832C111.089 17.1058 111.089 19.2502 112.411 20.5728C113.734 21.8954 115.878 21.8954 117.201 20.5728Z" fill="#3C096C"/>
<path d="M118.007 7.13528L116.909 16.4661L113.616 15.3683L118.007 7.13528Z" fill="#3C096C"/>
<path d="M122.617 1.76483C113.537 -2.54835 102.679 1.31612 98.3659 10.3962C94.0527 19.4763 97.9172 30.3338 106.997 34.6468C116.077 38.9599 126.935 35.0955 131.248 26.0154C135.561 16.9353 131.697 6.07801 122.617 1.76483ZM107.671 33.2293C99.3736 29.2881 95.8424 19.3668 99.7836 11.0696C103.725 2.77239 113.646 -0.758806 121.943 3.18253C130.24 7.12386 133.772 17.0449 129.83 25.3421C125.889 33.6393 115.968 37.1704 107.671 33.2293Z" fill="#3F2AA9"/>
<path d="M154.051 40.5954C154.072 40.5954 154.082 40.6271 154.082 40.6905C154.082 40.7962 154.024 40.9917 153.908 41.2771C153.792 41.5518 153.623 41.8742 153.401 42.2441C153.179 42.614 152.904 43.005 152.576 43.4172C152.259 43.8294 151.895 44.2204 151.482 44.5903C151.271 44.6432 151.002 44.7013 150.674 44.7647C150.346 44.8175 149.971 44.8704 149.548 44.9232C149.136 44.9761 148.687 45.0342 148.201 45.0976C147.715 45.1504 147.207 45.2033 146.679 45.2561C146.055 46.239 145.448 47.2166 144.856 48.1889C144.275 49.1612 143.725 50.1018 143.207 51.0107C142.689 51.9302 142.209 52.8127 141.765 53.6581C141.331 54.5036 140.956 55.291 140.639 56.0202C140.407 56.1153 140.063 56.2104 139.609 56.3056C139.154 56.4113 138.679 56.5117 138.182 56.6068C137.696 56.7019 137.241 56.7917 136.819 56.8763C136.396 56.9608 136.1 57.0295 135.931 57.0824C136.924 54.9581 137.923 52.9553 138.927 51.0741C139.942 49.2035 140.977 47.4015 142.034 45.6683C141.485 45.7106 140.967 45.7529 140.481 45.7951C139.994 45.8268 139.566 45.8533 139.196 45.8744C138.827 45.8955 138.525 45.9167 138.293 45.9378C138.06 45.9484 137.923 45.9537 137.881 45.9537C137.817 45.9537 137.786 45.9114 137.786 45.8268C137.786 45.7106 137.838 45.5415 137.944 45.3195C138.05 45.0976 138.171 44.8757 138.309 44.6537C138.457 44.4212 138.605 44.2204 138.753 44.0513C138.911 43.8716 139.033 43.7712 139.117 43.7501C139.942 43.6761 140.718 43.5969 141.448 43.5123C142.187 43.4278 142.89 43.3379 143.556 43.2428C145.279 40.569 147.044 38.0589 148.851 35.7127C150.658 33.3665 152.492 31.0784 154.352 28.8484C154.394 28.8062 154.415 28.7163 154.415 28.5789C154.415 28.5155 154.394 28.4521 154.352 28.3887C154.32 28.3253 154.241 28.3147 154.114 28.357C151.863 28.97 149.828 29.6516 148.011 30.402C146.193 31.1524 144.576 31.9133 143.16 32.6848C141.744 33.4458 140.518 34.1908 139.482 34.9201C138.457 35.6493 137.611 36.3098 136.945 36.9017C136.28 37.4829 135.788 37.9638 135.471 38.3443C135.154 38.7248 134.995 38.9467 134.995 39.0101C134.995 39.0418 135.006 39.0894 135.027 39.1528C135.059 39.2056 135.154 39.232 135.313 39.232C135.651 39.232 136.01 39.1845 136.391 39.0894C136.782 38.9943 137.167 38.8727 137.548 38.7248C137.939 38.5768 138.314 38.4183 138.673 38.2492C139.033 38.0695 139.366 37.9004 139.672 37.7419C139.683 37.985 139.693 38.2703 139.704 38.5979C139.725 38.915 139.741 39.2373 139.751 39.565C139.772 39.8926 139.788 40.2096 139.799 40.5161C139.82 40.812 139.831 41.0551 139.831 41.2454C139.704 41.3088 139.498 41.3775 139.212 41.4514C138.927 41.5149 138.578 41.5783 138.166 41.6417C137.764 41.6945 137.305 41.7421 136.787 41.7844C136.28 41.8161 135.735 41.8319 135.154 41.8319C135.091 41.8319 135.038 41.8266 134.995 41.8161C134.964 41.8055 134.932 41.8002 134.9 41.8002C134.805 41.7896 134.663 41.7051 134.472 41.5466C134.293 41.388 134.092 41.1872 133.87 40.9442C133.648 40.7011 133.421 40.4369 133.188 40.1515C132.956 39.8556 132.744 39.5755 132.554 39.3113C132.364 39.0365 132.205 38.7882 132.079 38.5662C131.962 38.3337 131.904 38.1646 131.904 38.0589C131.904 37.4143 132.142 36.7484 132.618 36.0615C133.104 35.364 133.754 34.6717 134.567 33.9848C135.392 33.2978 136.343 32.6214 137.421 31.9556C138.499 31.2898 139.635 30.6609 140.829 30.0691C142.024 29.4773 143.239 28.933 144.475 28.4363C145.712 27.929 146.896 27.4957 148.027 27.1363C149.157 26.777 150.198 26.4969 151.15 26.2961C152.111 26.0848 152.904 25.9791 153.527 25.9791C153.707 25.9791 153.913 26.0478 154.146 26.1852C154.389 26.3225 154.627 26.5022 154.859 26.7241C155.102 26.9461 155.34 27.1945 155.572 27.4692C155.805 27.744 156.011 28.0188 156.191 28.2936C156.381 28.5684 156.534 28.8326 156.65 29.0862C156.767 29.3293 156.83 29.5301 156.841 29.6886C156.841 29.752 156.73 29.9634 156.508 30.3227C156.296 30.6715 156.001 31.1365 155.62 31.7178C155.24 32.2885 154.79 32.9649 154.273 33.747C153.755 34.5185 153.189 35.364 152.576 36.2834C151.963 37.1923 151.313 38.1593 150.626 39.1845C149.95 40.1991 149.263 41.2454 148.566 42.3234C149.517 42.1014 150.33 41.89 151.007 41.6892C151.683 41.4779 152.243 41.2929 152.687 41.1344C153.131 40.9759 153.464 40.849 153.686 40.7539C153.908 40.6482 154.029 40.5954 154.051 40.5954Z" fill="#BB57DC"/>
<path d="M155.192 51.5656C155.033 51.5656 154.833 51.5074 154.59 51.3912C154.347 51.2855 154.114 51.1481 153.892 50.979C153.67 50.8205 153.48 50.6408 153.321 50.44C153.163 50.2392 153.084 50.0437 153.084 49.8535C153.189 49.3884 153.332 48.8547 153.512 48.2523C153.691 47.6499 153.887 47.0369 154.098 46.4134C154.299 45.7898 154.516 45.1821 154.748 44.5903C154.97 43.9879 155.171 43.4542 155.351 42.9892C155.541 42.5242 155.705 42.149 155.842 41.8636C155.979 41.5783 156.069 41.4356 156.111 41.4356C156.175 41.4356 156.333 41.5043 156.587 41.6417C156.841 41.7791 157.105 41.9482 157.38 42.149C157.665 42.3392 157.919 42.5453 158.141 42.7672C158.363 42.9786 158.474 43.1636 158.474 43.3221C158.474 43.3538 158.468 43.3961 158.458 43.4489C158.447 43.4912 158.431 43.5493 158.41 43.6233C158.326 43.8875 158.215 44.1993 158.077 44.5586C157.95 44.9179 157.813 45.2931 157.665 45.6842C157.517 46.0646 157.369 46.4504 157.221 46.8414C157.073 47.2219 156.941 47.5812 156.825 47.9194C156.709 48.2576 156.613 48.5535 156.54 48.8072C156.466 49.0608 156.429 49.2458 156.429 49.362C156.429 49.4254 156.46 49.4571 156.524 49.4571C156.64 49.4571 156.814 49.3884 157.047 49.251C157.279 49.1137 157.544 48.934 157.839 48.712C158.146 48.4901 158.463 48.247 158.791 47.9828C159.118 47.7186 159.43 47.4597 159.726 47.206C160.032 46.9418 160.307 46.704 160.55 46.4927C160.793 46.2813 160.978 46.1228 161.105 46.0171C161.2 46.1122 161.311 46.2337 161.438 46.3817C161.575 46.5296 161.702 46.667 161.819 46.7939C161.586 47.0264 161.295 47.3117 160.947 47.6499C160.598 47.9775 160.217 48.3157 159.805 48.6645C159.404 49.0133 158.981 49.362 158.537 49.7108C158.104 50.0595 157.681 50.3713 157.269 50.6461C156.857 50.9209 156.471 51.1428 156.111 51.3119C155.752 51.481 155.446 51.5656 155.192 51.5656ZM161.47 36.6005C161.459 36.6427 161.417 36.7484 161.343 36.9175C161.28 37.0761 161.2 37.2663 161.105 37.4882C161.01 37.6996 160.899 37.9268 160.772 38.1699C160.656 38.4024 160.54 38.6191 160.423 38.8199C160.307 39.0207 160.196 39.1898 160.091 39.3272C159.985 39.454 159.9 39.5174 159.837 39.5174C159.647 39.5068 159.414 39.4487 159.139 39.343C158.875 39.2373 158.616 39.1211 158.363 38.9943C158.12 38.8569 157.908 38.7248 157.728 38.5979C157.559 38.4711 157.475 38.3813 157.475 38.3284C157.475 38.1065 157.538 37.8211 157.665 37.4724C157.792 37.113 157.94 36.7696 158.109 36.4419C158.278 36.1038 158.447 35.8131 158.616 35.57C158.796 35.327 158.933 35.2054 159.028 35.2054C159.219 35.2054 159.451 35.2688 159.726 35.3957C160.001 35.5119 160.265 35.6493 160.519 35.8078C160.783 35.9664 161.005 36.1249 161.184 36.2834C161.375 36.4314 161.47 36.5371 161.47 36.6005Z" fill="#BB57DC"/>
<path d="M164.292 49.584C164.461 49.584 164.688 49.51 164.973 49.362C165.269 49.2141 165.591 49.0291 165.94 48.8072C166.289 48.5747 166.654 48.321 167.034 48.0462C167.415 47.7714 167.769 47.5019 168.096 47.2377C168.434 46.9735 168.736 46.7304 169 46.5085C169.264 46.2866 169.46 46.1228 169.586 46.0171C169.682 46.1122 169.792 46.2337 169.919 46.3817C170.057 46.5296 170.184 46.667 170.3 46.7939C170.067 47.0264 169.777 47.3117 169.428 47.6499C169.079 47.9775 168.699 48.3157 168.286 48.6645C167.885 49.0133 167.462 49.362 167.018 49.7108C166.585 50.0595 166.157 50.3713 165.734 50.6461C165.322 50.9209 164.936 51.1428 164.577 51.3119C164.218 51.481 163.916 51.5656 163.673 51.5656C163.346 51.5656 162.997 51.4493 162.627 51.2168C162.268 50.9843 161.929 50.7148 161.612 50.4083C161.295 50.0912 161.026 49.7742 160.804 49.4571C160.582 49.1401 160.455 48.9023 160.423 48.7438C160.402 48.6803 160.392 48.6064 160.392 48.5218C160.392 48.4267 160.392 48.3263 160.392 48.2206C160.392 47.6922 160.46 47.0264 160.598 46.2232C160.725 45.4094 160.899 44.5533 161.121 43.655C161.343 42.7461 161.597 41.8478 161.882 40.96C162.178 40.0617 162.484 39.269 162.801 38.5821C163.446 37.1765 164.107 35.9294 164.783 34.8408C165.47 33.7522 166.141 32.8064 166.796 32.0031C167.452 31.1894 168.08 30.5077 168.683 29.9581C169.285 29.4086 169.824 28.9647 170.3 28.6265C170.786 28.2883 171.193 28.0452 171.52 27.8973C171.859 27.7493 172.091 27.6753 172.218 27.6753C172.419 27.7493 172.62 27.8603 172.82 28.0082C173.032 28.1456 173.227 28.2936 173.407 28.4521C173.587 28.6106 173.745 28.7692 173.883 28.9277C174.02 29.0757 174.12 29.1866 174.184 29.2606C174.268 29.3452 174.321 29.4297 174.342 29.5143C174.374 29.5882 174.39 29.6886 174.39 29.8155C174.39 30.0691 174.326 30.4179 174.2 30.8617C174.073 31.3056 173.835 31.871 173.486 32.558C173.137 33.2344 172.651 34.0482 172.028 34.9993C171.415 35.9505 170.612 37.0602 169.618 38.3284C169.153 38.9203 168.662 39.5227 168.144 40.1357C167.7 40.6641 167.187 41.2401 166.606 41.8636C166.025 42.4872 165.428 43.0843 164.815 43.655C164.508 44.8175 164.292 45.8427 164.165 46.7304C164.048 47.6182 163.99 48.3104 163.99 48.8072C163.99 49.1348 164.017 49.3462 164.07 49.4413C164.122 49.5364 164.196 49.584 164.292 49.584ZM166.828 37.9638C166.648 38.3654 166.479 38.7565 166.321 39.1369C166.173 39.5174 166.03 39.8926 165.893 40.2625C166.22 39.8926 166.516 39.5385 166.78 39.2003C167.055 38.8621 167.288 38.5715 167.478 38.3284C167.7 38.0431 167.901 37.7736 168.08 37.5199C168.82 36.4842 169.46 35.533 169.999 34.6664C170.538 33.7998 170.981 33.0389 171.33 32.3836C171.679 31.7178 171.933 31.1682 172.091 30.7349C172.26 30.291 172.345 29.974 172.345 29.7837C172.345 29.7309 172.34 29.6939 172.329 29.6728C172.329 29.6411 172.303 29.6252 172.25 29.6252C172.155 29.6252 171.938 29.7837 171.6 30.1008C171.262 30.4073 170.844 30.8987 170.347 31.5751C169.861 32.2515 169.312 33.1181 168.699 34.175C168.096 35.2213 167.473 36.4842 166.828 37.9638Z" fill="#BB57DC"/>
<path d="M171.124 51.5656C170.944 51.5656 170.707 51.481 170.411 51.3119C170.125 51.1534 169.845 50.9526 169.571 50.7095C169.296 50.477 169.058 50.2339 168.857 49.9803C168.656 49.7266 168.556 49.51 168.556 49.3303C168.556 49.0133 168.646 48.5112 168.825 47.8243C168.995 47.1373 169.222 46.3553 169.507 45.4781C169.792 44.5903 170.115 43.6444 170.474 42.6404C170.844 41.6364 171.214 40.6535 171.584 39.6918H169.333C169.322 39.6918 169.317 39.6812 169.317 39.6601C169.317 39.5967 169.343 39.5068 169.396 39.3906C169.438 39.2638 169.497 39.1369 169.571 39.0101C169.634 38.8727 169.713 38.7512 169.808 38.6455C169.893 38.5292 169.977 38.4553 170.062 38.4236L172.123 38.3284C172.419 37.6098 172.699 36.9492 172.963 36.3468C173.238 35.7339 173.481 35.2107 173.692 34.7774C173.745 34.6611 173.798 34.5396 173.851 34.4128C173.914 34.2754 173.999 34.1433 174.104 34.0165C174.221 33.8791 174.369 33.7417 174.548 33.6043C174.739 33.4563 174.992 33.3084 175.309 33.1604C175.542 33.0442 175.822 32.9173 176.149 32.7799C176.488 32.6425 176.815 32.5157 177.132 32.3995C177.46 32.2832 177.756 32.1881 178.02 32.1141C178.284 32.0296 178.475 31.9873 178.591 31.9873C178.696 31.9873 178.749 32.0084 178.749 32.0507V32.0824C178.749 32.093 178.739 32.1194 178.718 32.1617C178.654 32.2674 178.538 32.4999 178.369 32.8592C178.2 33.208 177.988 33.6518 177.735 34.1908C177.492 34.7193 177.217 35.327 176.91 36.0139C176.614 36.6903 176.308 37.409 175.991 38.1699L179.796 38.0272C179.901 38.0272 179.933 38.0906 179.891 38.2175C179.848 38.3443 179.769 38.4922 179.653 38.6613C179.537 38.8304 179.399 39.0048 179.241 39.1845C179.093 39.3642 178.966 39.5015 178.86 39.5967C178.839 39.6178 178.797 39.6389 178.733 39.6601C178.67 39.6812 178.591 39.6918 178.496 39.6918H175.357C174.976 40.6112 174.612 41.5413 174.263 42.4819C173.914 43.4225 173.602 44.3155 173.328 45.161C173.053 46.0065 172.831 46.7833 172.662 47.4914C172.503 48.1995 172.424 48.7807 172.424 49.2352C172.424 49.2986 172.456 49.3303 172.519 49.3303C172.635 49.3303 172.81 49.2669 173.042 49.1401C173.275 49.0027 173.534 48.8283 173.819 48.6169C174.115 48.4056 174.427 48.1731 174.754 47.9194C175.082 47.6658 175.394 47.4174 175.69 47.1743C175.986 46.9207 176.25 46.6935 176.482 46.4927C176.725 46.2813 176.91 46.1228 177.037 46.0171C177.132 46.1122 177.243 46.2337 177.37 46.3817C177.508 46.5296 177.634 46.667 177.751 46.7939C177.518 47.0264 177.227 47.3117 176.879 47.6499C176.53 47.9775 176.149 48.3157 175.737 48.6645C175.336 49.0133 174.913 49.362 174.469 49.7108C174.036 50.0595 173.608 50.3713 173.185 50.6461C172.773 50.9209 172.387 51.1428 172.028 51.3119C171.668 51.481 171.367 51.5656 171.124 51.5656Z" fill="#BB57DC"/>
<path d="M188.023 46.7939C187.051 47.745 186.131 48.543 185.265 49.1876C184.409 49.8323 183.59 50.3502 182.808 50.7412C182.026 51.1323 181.275 51.4123 180.557 51.5814C179.848 51.7505 179.156 51.8351 178.48 51.8351C178.194 51.8351 177.877 51.7294 177.529 51.518C177.18 51.3066 176.858 51.0477 176.562 50.7412C176.255 50.4453 176.002 50.1335 175.801 49.8059C175.6 49.4783 175.5 49.1982 175.5 48.9657C175.5 48.0991 175.621 47.3064 175.864 46.5878C176.097 45.8585 176.408 45.2033 176.799 44.622C177.19 44.0407 177.634 43.5282 178.131 43.0843C178.638 42.6404 179.162 42.2705 179.701 41.9746C180.25 41.6787 180.794 41.4567 181.333 41.3088C181.872 41.1608 182.369 41.0868 182.824 41.0868C183.151 41.0868 183.473 41.1819 183.791 41.3722C184.118 41.5624 184.414 41.7949 184.678 42.0697C184.943 42.3445 185.154 42.6351 185.312 42.9416C185.482 43.2375 185.566 43.4965 185.566 43.7184C185.566 44.0777 185.413 44.4476 185.106 44.8281C184.81 45.198 184.388 45.5785 183.838 45.9695C183.289 46.3605 182.628 46.7621 181.857 47.1743C181.085 47.5759 180.234 47.9828 179.304 48.395C179.272 48.6486 179.257 48.897 179.257 49.1401C179.257 49.4677 179.325 49.6896 179.463 49.8059C179.611 49.9222 179.88 49.9803 180.271 49.9803C180.969 49.9803 181.624 49.864 182.237 49.6315C182.861 49.399 183.458 49.0978 184.028 48.7279C184.599 48.358 185.149 47.9353 185.677 47.4597C186.205 46.9841 186.729 46.5032 187.246 46.0171L188.023 46.7939ZM182.443 42.8306C182.232 42.8306 181.999 42.9469 181.746 43.1794C181.492 43.4013 181.238 43.6973 180.985 44.0672C180.731 44.4371 180.488 44.8651 180.255 45.3512C180.023 45.8268 179.822 46.3236 179.653 46.8414C180.044 46.5878 180.424 46.3183 180.794 46.0329C181.175 45.7476 181.513 45.4516 181.809 45.1452C182.105 44.8281 182.343 44.5058 182.522 44.1781C182.702 43.8505 182.792 43.5229 182.792 43.1953C182.792 43.1001 182.76 43.0156 182.697 42.9416C182.644 42.8676 182.559 42.8306 182.443 42.8306Z" fill="#BB57DC"/>
<path d="M194.444 44.1306C194.306 44.5428 194.132 45.0131 193.921 45.5415C193.72 46.0699 193.524 46.5878 193.334 47.0951C193.144 47.6024 192.98 48.0621 192.843 48.4743C192.716 48.8864 192.652 49.1824 192.652 49.362C192.652 49.4254 192.684 49.4571 192.747 49.4571C192.864 49.4571 193.038 49.3884 193.271 49.251C193.503 49.1137 193.767 48.934 194.063 48.712C194.37 48.4901 194.687 48.247 195.014 47.9828C195.342 47.7186 195.654 47.4597 195.95 47.206C196.256 46.9418 196.531 46.704 196.774 46.4927C197.017 46.2813 197.202 46.1228 197.329 46.0171C197.424 46.1122 197.535 46.2337 197.662 46.3817C197.799 46.5296 197.926 46.667 198.042 46.7939C197.81 47.0264 197.519 47.3117 197.17 47.6499C196.822 47.9775 196.441 48.3157 196.029 48.6645C195.627 49.0133 195.205 49.362 194.761 49.7108C194.327 50.0595 193.899 50.3713 193.477 50.6461C193.064 50.9209 192.679 51.1428 192.319 51.3119C191.96 51.481 191.659 51.5656 191.416 51.5656C191.257 51.5656 191.056 51.5074 190.813 51.3912C190.57 51.2855 190.338 51.1481 190.116 50.979C189.894 50.8205 189.704 50.6408 189.545 50.44C189.387 50.2392 189.307 50.0437 189.307 49.8535C189.466 49.1454 189.624 48.5271 189.783 47.9987C189.941 47.4702 190.089 47.0211 190.227 46.6512C190.364 46.2707 190.486 45.9642 190.591 45.7317C190.697 45.4992 190.776 45.3248 190.829 45.2086C190.702 45.1557 190.581 45.0976 190.465 45.0342C190.348 44.9708 190.232 44.9074 190.116 44.844C189.947 45.0236 189.757 45.2139 189.545 45.4147C189.344 45.6155 189.138 45.8163 188.927 46.0171C188.715 46.2179 188.504 46.4134 188.293 46.6036C188.081 46.7939 187.891 46.9682 187.722 47.1268L186.961 46.35C187.236 46.0858 187.569 45.7687 187.96 45.3988C188.34 45.0183 188.715 44.6379 189.085 44.2574C188.821 44.0989 188.583 43.9509 188.372 43.8135C188.161 43.6656 187.981 43.5335 187.833 43.4172C187.653 43.2904 187.495 43.1741 187.357 43.0684C187.294 43.0367 187.262 42.968 187.262 42.8623C187.262 42.7461 187.31 42.5823 187.405 42.3709C187.49 42.149 187.601 41.9165 187.738 41.6734C187.875 41.4197 188.023 41.1661 188.182 40.9124C188.34 40.6482 188.494 40.4104 188.642 40.1991C188.789 39.9877 188.916 39.8186 189.022 39.6918C189.138 39.5544 189.212 39.4857 189.244 39.4857C189.265 39.4857 189.334 39.5121 189.45 39.565C189.577 39.6178 189.709 39.6812 189.846 39.7552C189.984 39.8186 190.111 39.8926 190.227 39.9771C190.343 40.0617 190.417 40.1357 190.449 40.1991C190.459 40.2519 190.47 40.3629 190.48 40.532C190.491 40.7011 190.502 40.9072 190.512 41.1502C190.924 41.3616 191.347 41.6047 191.78 41.8795C192.214 42.1437 192.61 42.3973 192.969 42.6404C193.392 42.9152 193.794 43.1953 194.174 43.4806C194.312 43.5652 194.396 43.6708 194.428 43.7977C194.47 43.9245 194.475 44.0355 194.444 44.1306Z" fill="#BB57DC"/>
</svg>
