<svg width="75" height="75" viewBox="0 0 75 75" fill="none" xmlns="http://www.w3.org/2000/svg">
<g filter="url(#filter0_d_1_2725)">
<path d="M57.4068 42.4623C54.4225 53.6997 42.8926 60.3906 31.6543 57.4061L31.6162 57.3959C20.4014 54.3951 13.7299 42.8768 16.7103 31.6545C19.6906 20.4322 31.198 13.7407 42.4237 16.7004L42.4618 16.7105C53.7001 19.6951 60.3919 31.222 57.4068 42.4623Z" fill="black"/>
<path d="M49.6258 34.3659L48.4936 38.5279C47.6839 38.3022 46.9046 37.9792 46.1727 37.5659C45.0439 36.9269 44.0428 36.0849 43.2198 35.0823C43.1067 35.5085 42.9438 36.1459 42.7385 36.919C42.4653 37.9479 42.31 38.5325 42.1391 39.1516C41.1027 42.9815 41.0009 43.7489 40.2613 45.1757C40.0941 45.5227 39.9026 45.8575 39.6882 46.1775C38.561 47.8105 36.7651 48.8816 35.1218 49.2686C34.6635 49.3754 34.1959 49.4371 33.7256 49.4528C30.7871 49.5548 27.7113 47.9629 26.5572 45.5094L26.5493 45.4944L26.5408 45.4739C25.567 43.3645 25.9699 40.5859 26.1231 39.888C26.1465 39.7997 26.1634 39.7119 26.1634 39.7119C26.3916 38.7636 26.7767 37.8601 27.3027 37.0387C27.8402 36.1873 29.3126 34.5032 31.7763 33.8972C33.3097 33.5308 34.9187 33.6444 36.3854 34.2227L35.2159 38.4284C35.1365 38.3837 33.2055 37.3481 31.4798 38.3928C29.9167 39.3389 29.4519 41.4086 30.0132 42.7998C30.0428 42.8742 30.076 42.9474 30.1122 43.0171C30.4545 43.6888 31.0171 44.0562 31.3955 44.3091C31.899 44.6374 32.4557 44.8761 33.0407 45.0144C33.6654 45.1699 34.3223 45.1362 34.9279 44.9176C36.5969 44.3324 37.2418 42.6722 37.2746 42.5768C38.7199 37.0649 40.1661 31.5531 41.6133 26.0417L41.6146 26.0367L44.2775 26.6934L44.3207 26.7049L44.7066 26.7998C44.7191 27.8942 44.9458 28.9756 45.3739 29.9829C45.5092 30.2984 45.6645 30.6049 45.8386 30.9008C46.5 32.0057 47.3956 32.9523 48.4623 33.6737L48.4704 33.6759C48.8385 33.9332 49.2247 34.1638 49.6258 34.3659Z" fill="#FD2854"/>
<path d="M47.9267 35.934L47.9186 35.9319C46.4306 35.7815 44.9989 35.2825 43.7398 34.4753C42.8616 33.9076 42.0844 33.1972 41.4402 32.3735C41.1477 35.4236 40.3559 38.4048 39.0967 41.1982C37.6122 44.4797 36.6817 46.5363 34.3997 47.4043C34.3519 47.4227 34.303 47.4408 34.2547 47.457C31.1325 48.5462 27.6714 46.6748 26.5405 45.4717L26.5237 45.4543L26.492 45.4201C26.124 45.0057 25.7942 44.5588 25.5068 44.085C24.993 43.2299 24.6537 42.2815 24.5084 41.2945C24.3631 40.3076 24.4148 39.3016 24.6603 38.3348C24.8998 37.3293 25.3296 36.379 25.9266 35.5353C26.312 34.9935 27.7187 33.0762 30.4001 32.3938C32.1134 31.9709 33.9192 32.1374 35.5263 32.8663C35.4308 33.1988 35.3357 33.5314 35.2409 33.864L35.2391 33.871L34.638 35.9766C33.9519 35.6097 33.2064 35.3666 32.4358 35.2586C31.8144 35.173 31.2064 35.0856 30.475 35.3133C29.5351 35.6168 28.7517 36.2767 28.2929 37.1513C28.0392 37.5666 27.8854 38.0351 27.8435 38.5199C27.8324 38.6587 27.7647 39.6251 28.3316 40.482C28.5224 40.7699 28.6263 40.8072 28.9 41.2438C29.141 41.6299 29.1829 41.7956 29.4104 42.1233C29.4104 42.1233 29.4664 42.2037 29.5618 42.3213C29.5677 42.3299 29.5741 42.3381 29.5811 42.3458C29.7115 42.5071 29.853 42.6591 30.0045 42.8007C30.6373 43.381 31.9421 43.7715 33.0311 43.5594C34.5382 43.265 35.6625 41.9662 35.8949 41.0789C37.342 35.5653 38.7886 30.0519 40.2349 24.5388L40.3271 24.5633L44.4269 25.6263C44.3392 25.9448 44.299 26.2745 44.3077 26.6048C44.3089 26.6406 44.3107 26.6743 44.3121 26.7133C44.3136 26.7524 44.3161 26.7713 44.3185 26.7988C44.3377 26.9823 44.3678 27.1645 44.4086 27.3444L44.4352 27.4749L44.4328 27.484C44.4312 27.4863 44.4304 27.4891 44.4306 27.492L44.4346 27.5134L44.4388 27.5339C44.4412 27.547 44.4442 27.56 44.4478 27.5728C44.4504 27.5874 44.4539 27.6023 44.4575 27.6172C44.4762 27.7005 44.5028 27.8106 44.5332 27.9347C44.5524 28.0117 44.5737 28.0893 44.5962 28.1661L44.6204 28.2488C44.6319 28.2905 44.6444 28.3324 44.6571 28.3734L44.7035 28.522C44.8846 29.0972 45.2119 30.072 45.8216 30.9048C46.6789 32.075 47.8663 32.6566 48.6328 32.9396C48.5723 33.1876 48.5128 33.4359 48.4523 33.6839C48.2839 34.4365 48.1087 35.1865 47.9267 35.934Z" fill="#24F6FA"/>
<path d="M47.6266 37.1157C45.5402 36.6428 43.6821 35.4616 42.3684 33.773L40.0249 42.5976C39.915 42.9302 38.6293 46.5791 34.7171 47.7365C34.524 47.7926 34.3317 47.8414 34.1414 47.8832C30.5442 48.6584 27.7849 46.5697 27.514 46.3571C27.2363 46.177 26.9806 45.965 26.7521 45.7254C26.681 45.6496 26.6124 45.5724 26.5483 45.4942L26.4913 45.4221C24.842 43.3051 25.6052 40.0876 25.7174 39.6128C25.9456 38.6645 26.3307 37.761 26.8567 36.9396C27.4866 35.9421 28.9915 34.3783 31.3302 33.7981C32.619 33.4843 33.967 33.5095 35.2432 33.8711L35.2413 33.8781C34.9432 34.9333 34.645 35.9888 34.3467 37.0446C34.1465 36.9292 32.9133 36.2453 31.4057 36.7156C30.4658 37.0191 29.6823 37.679 29.2235 38.5536C28.9769 38.9717 28.8237 39.4383 28.7745 39.9212C28.737 40.5237 28.8664 41.1248 29.1482 41.6586C29.2637 41.8944 29.4034 42.1175 29.5651 42.3244C29.5709 42.3329 29.5774 42.3411 29.5844 42.3488C29.7107 42.5136 29.8525 42.6659 30.0078 42.8037L30.0125 42.8103C30.2272 43.4466 30.6333 44.001 31.1753 44.3974C31.7173 44.7939 32.3686 45.0131 33.04 45.0249C33.3499 45.0416 33.6606 45.0211 33.9655 44.9637C34.3347 44.8949 34.6903 44.7667 35.0185 44.5842C36.2925 43.878 36.7994 42.5677 36.828 42.4883L41.1751 25.9414L41.6187 26.0496L44.2829 26.7013L44.321 26.7114C44.3242 26.7402 44.3283 26.7692 44.3324 26.7982C44.3544 26.9618 44.3842 27.1447 44.4225 27.3439L44.4491 27.4744L44.4467 27.4834C44.4451 27.4857 44.4443 27.4886 44.4446 27.4914L44.4485 27.5129L44.4528 27.5333C44.4551 27.5464 44.4581 27.5594 44.4617 27.5722C44.4643 27.5868 44.4679 27.6017 44.4714 27.6166C44.4936 27.7191 44.523 27.8268 44.5471 27.9341C44.5663 28.0111 44.5876 28.0887 44.6101 28.1655L44.6343 28.2482L44.671 28.3728L44.7174 28.5215C44.9856 29.3607 45.3614 30.1616 45.8355 30.9042C46.5282 31.9852 47.4183 32.9259 48.4593 33.6772L48.4673 33.6793C48.283 34.4259 48.0981 35.1744 47.9128 35.9207L47.6266 37.1157Z" fill="white"/>
</g>
<defs>
<filter id="filter0_d_1_2725" x="0" y="0" width="74.1175" height="74.1166" filterUnits="userSpaceOnUse" color-interpolation-filters="sRGB">
<feFlood flood-opacity="0" result="BackgroundImageFix"/>
<feColorMatrix in="SourceAlpha" type="matrix" values="0 0 0 0 0 0 0 0 0 0 0 0 0 0 0 0 0 0 127 0" result="hardAlpha"/>
<feOffset/>
<feGaussianBlur stdDeviation="8"/>
<feComposite in2="hardAlpha" operator="out"/>
<feColorMatrix type="matrix" values="0 0 0 0 1 0 0 0 0 1 0 0 0 0 1 0 0 0 1 0"/>
<feBlend mode="normal" in2="BackgroundImageFix" result="effect1_dropShadow_1_2725"/>
<feBlend mode="normal" in="SourceGraphic" in2="effect1_dropShadow_1_2725" result="shape"/>
</filter>
</defs>
</svg>
