<svg width="16" height="17" viewBox="0 0 16 17" fill="none" xmlns="http://www.w3.org/2000/svg">
<g filter="url(#filter0_d_1_1255)">
<path fill-rule="evenodd" clip-rule="evenodd" d="M7.99998 10.1536L13.3821 15.5357C13.6677 15.8213 14.055 15.9818 14.4589 15.9818C14.8628 15.9818 15.2501 15.8213 15.5357 15.5357C15.8213 15.2501 15.9818 14.8628 15.9818 14.4589C15.9818 14.055 15.8213 13.6677 15.5357 13.3821L10.1516 8L15.5347 2.61791C15.6761 2.4765 15.7882 2.30863 15.8646 2.12389C15.9411 1.93916 15.9804 1.74117 15.9804 1.54123C15.9803 1.34129 15.9409 1.14332 15.8644 0.958621C15.7878 0.773921 15.6756 0.606108 15.5342 0.464764C15.3928 0.32342 15.2249 0.211313 15.0402 0.134844C14.8555 0.0583748 14.6575 0.0190408 14.4575 0.0190879C14.2576 0.019135 14.0596 0.0585622 13.8749 0.135119C13.6902 0.211675 13.5224 0.323861 13.3811 0.465272L7.99998 5.84736L2.61789 0.465272C2.47752 0.319805 2.30959 0.20375 2.12389 0.123877C1.9382 0.044005 1.73845 0.00191503 1.53631 6.3842e-05C1.33418 -0.00178735 1.13369 0.036637 0.946564 0.113095C0.759435 0.189553 0.589406 0.302513 0.4464 0.445385C0.303394 0.588257 0.190273 0.758179 0.113639 0.945236C0.0370042 1.13229 -0.00160921 1.33274 5.13717e-05 1.53488C0.00171195 1.73702 0.0436131 1.9368 0.12331 2.12258C0.203008 2.30835 0.318905 2.47639 0.464239 2.61689L5.84836 8L0.465254 13.3831C0.31992 13.5236 0.204023 13.6917 0.124326 13.8774C0.0446284 14.0632 0.00272679 14.263 0.00106621 14.4651C-0.000594368 14.6673 0.038019 14.8677 0.114653 15.0548C0.191288 15.2418 0.304408 15.4117 0.447415 15.5546C0.590421 15.6975 0.76045 15.8104 0.947579 15.8869C1.13471 15.9634 1.33519 16.0018 1.53733 15.9999C1.73947 15.9981 1.93921 15.956 2.12491 15.8761C2.31061 15.7963 2.47854 15.6802 2.6189 15.5347L7.99998 10.1536Z" fill="#E13F33"/>
</g>
<defs>
<filter id="filter0_d_1_1255" x="0" y="0" width="15.9818" height="17" filterUnits="userSpaceOnUse" color-interpolation-filters="sRGB">
<feFlood flood-opacity="0" result="BackgroundImageFix"/>
<feColorMatrix in="SourceAlpha" type="matrix" values="0 0 0 0 0 0 0 0 0 0 0 0 0 0 0 0 0 0 127 0" result="hardAlpha"/>
<feOffset dy="1"/>
<feComposite in2="hardAlpha" operator="out"/>
<feColorMatrix type="matrix" values="0 0 0 0 0.905882 0 0 0 0 0.494118 0 0 0 0 0.494118 0 0 0 1 0"/>
<feBlend mode="normal" in2="BackgroundImageFix" result="effect1_dropShadow_1_1255"/>
<feBlend mode="normal" in="SourceGraphic" in2="effect1_dropShadow_1_1255" result="shape"/>
</filter>
</defs>
</svg>
