<svg width="20" height="20" viewBox="0 0 20 20" fill="none" xmlns="http://www.w3.org/2000/svg">
<path d="M8.68457 1.36328C9.38164 0.568411 10.6184 0.568407 11.3154 1.36328L12.5166 2.7334C12.5729 2.79765 12.6587 2.82844 12.7432 2.81543L14.5439 2.53809C15.5889 2.3773 16.5366 3.17251 16.5596 4.22949L16.5996 6.05078C16.6015 6.13621 16.6467 6.21544 16.7197 6.25977L18.2773 7.2041C19.1813 7.7525 19.3961 8.97135 18.7344 9.7959L17.5938 11.2168C17.5403 11.2834 17.5243 11.3732 17.5518 11.4541L18.1377 13.1787C18.4777 14.1798 17.8591 15.2516 16.8223 15.458L15.0352 15.8135C14.9514 15.8301 14.8816 15.8881 14.8506 15.9678L14.1904 17.666C13.8073 18.6513 12.6447 19.0748 11.7178 18.5664L10.1201 17.6895C10.0453 17.6484 9.95472 17.6485 9.87988 17.6895L8.28223 18.5664C7.35534 19.0748 6.19267 18.6513 5.80957 17.666L5.14941 15.9678C5.11844 15.8881 5.04864 15.8301 4.96484 15.8135L3.17773 15.458C2.14091 15.2516 1.52235 14.1798 1.8623 13.1787L2.44824 11.4541C2.47572 11.3732 2.45974 11.2834 2.40625 11.2168L1.26562 9.7959C0.603936 8.97136 0.818744 7.7525 1.72266 7.2041L3.28027 6.25977C3.35333 6.21544 3.39854 6.13621 3.40039 6.05078L3.44043 4.22949C3.46344 3.17251 4.41114 2.3773 5.45605 2.53809L7.25684 2.81543C7.34129 2.82844 7.42706 2.79765 7.4834 2.7334L8.68457 1.36328Z" fill="#A6D981" stroke="white" stroke-width="1.5"/>
<path fill-rule="evenodd" clip-rule="evenodd" d="M14.8023 7.18484C14.9289 7.30309 15 7.46345 15 7.63066C15 7.79787 14.9289 7.95823 14.8023 8.07649L9.74016 12.8029C9.67326 12.8654 9.59384 12.915 9.50642 12.9488C9.41901 12.9826 9.32532 13 9.2307 13C9.13609 13 9.0424 12.9826 8.95498 12.9488C8.86757 12.915 8.78815 12.8654 8.72125 12.8029L6.20618 10.4551C6.14168 10.3969 6.09023 10.3273 6.05483 10.2504C6.01944 10.1734 6.0008 10.0907 6.00003 10.007C5.99925 9.92323 6.01633 9.8402 6.05029 9.7627C6.08425 9.6852 6.1344 9.6148 6.19781 9.55559C6.26122 9.49638 6.33663 9.44956 6.41963 9.41785C6.50263 9.38615 6.59156 9.37019 6.68124 9.37092C6.77091 9.37165 6.85953 9.38904 6.94193 9.42209C7.02433 9.45514 7.09885 9.50318 7.16115 9.56341L9.23048 11.4955L13.8468 7.18484C13.9096 7.12624 13.984 7.07975 14.066 7.04804C14.148 7.01632 14.2358 7 14.3246 7C14.4133 7 14.5011 7.01632 14.5831 7.04804C14.6651 7.07975 14.7395 7.12624 14.8023 7.18484Z" fill="black"/>
</svg>
